<svg id="137807753" viewBox="0 0 312.5 295.4433216787765" height="295.4433216787765" width="312.5" style="width: 312.5px; height: 295.443px; position: absolute; top: 50%; left: 50%; transform: translate(-50%, -50%) scale(0.874279); z-index: 0; cursor: pointer;"><defs id="SvgjsDefs1031"></defs><g id="SvgjsG1032" featurekey="rootContainer" transform="matrix(2.9932947566625288,0,0,2.9932947566625288,0,0.000618027033631742)" fill="#0d47a1"><path xmlns="http://www.w3.org/2000/svg" d="M54.7 98.7h-5c-9 0-17-.3-23.6-4.1s-11.6-11.7-15.8-19l-2-3.5C4.2 65.1 0 57.9 0 49.4s4.2-15.8 8.3-22.8l2-3.5c4.2-7.3 8.5-14.8 15.8-19S40.7 0 49.7 0h5c9 0 17 .3 23.6 4.1s11.6 11.7 15.8 19l2 3.5c4.1 7 8.3 14.2 8.3 22.8s-4.2 15.8-8.3 22.8l-2 3.5c-4.2 7.3-8.5 14.8-15.8 19s-14.6 4-23.6 4zm-2.5-1.2h2.5c8.8 0 16.7-.3 23-4S89 82.2 93.1 75l2-3.5c4-6.9 8.2-14 8.2-22.2S99.1 34 95.1 27.1l-2-3.5c-4.1-7-8.4-14.4-15.3-18.4s-14.2-4-23-4h-5c-8.8 0-16.7.3-23 4S15.5 16.6 11.4 23.7l-2 3.5c-4 6.9-8.2 14-8.2 22.2s4.1 15.3 8.1 22.1l2 3.5c4.1 7.1 8.4 14.5 15.3 18.6s14.2 4 23 4z"></path></g><g id="SvgjsG1033" featurekey="symbolFeature-0" transform="matrix(1.081081081081081,0,0,1.081081081081081,101.94594594594595,50.91891891891892)" fill="#0d47a1"><g xmlns="http://www.w3.org/2000/svg" transform="translate(0,-952.36218)"><g transform="translate(6.999762,959.33092)"><path d="m 54.728669,12.556672 -13.0173,4.0017 c -0.1641,0.044 -0.31648,0.1314 -0.43808,0.2501 l -27.03592,28.012 c -0.57514,0.5556 -0.0801,1.7383 0.7197,1.7195 l 9.01198,0 0,10.1605 c -5.99264,1.1529 -12.63653,4.0059 -17.3981201,5.9088 -0.61173,0.2624 -0.7724,1.2077 -0.28163,1.6571 l 10.0133101,9.0038 c 0.27977,0.2574 0.71287,0.3337 1.06391,0.1875 19.99625,-8.9902 35.71344,-14.9212 61.550542,-11.9425 0.46535,0.039 0.93499,-0.2917 1.05347,-0.7431 0.11849,-0.4513 -0.12795,-0.9702 -0.5528,-1.164 l -10.38881,-4.0643 0,-11.0047 8.01065,0 c 0.73907,0.01 1.25236,-1.0002 0.81358,-1.5944 l -22.02927,-30.0128 c -0.34514,-0.4609 -0.813582,-0.419 -1.095212,-0.3752 z m -4.69379,7.6911 16.991332,23.6038 0,11.7236 c -10.37671,0.054 -22.328242,0.9873 -32.042582,4.5333 l 0,-14.5687 c -5e-5,-0.5238 -0.47705,-1.0004 -1.00133,-1.0005 l -6.72769,0 z m -3.22303,13.2869 c -0.45901,0.088 -0.82181,0.5336 -0.81358,1.0004 l 0,14.006 c 5e-5,0.5238 0.47705,1.0003 1.00133,1.0004 l 10.013312,0 c 0.52427,-10e-5 1.00128,-0.4766 1.00133,-1.0004 l 0,-14.006 c -5e-5,-0.5238 -0.47706,-1.0003 -1.00133,-1.0004 -3.392132,0 -6.825422,0 -10.201062,0 z m 1.18908,2.0008 3.00399,0 0,5.0021 -3.00399,0 z m 5.00665,0 3.004002,0 0,5.0021 -3.004002,0 z m -5.00665,7.003 3.00399,0 0,5.0021 -3.00399,0 z m 5.00665,0 3.004002,0 0,5.0021 -3.004002,0 z m 19.463372,16.507 c -22.142942,-1.3087 -37.321352,4.2481 -55.323522,12.3178 l -8.3548501,-7.4719 c 4.7976601,-1.9337 10.8010801,-4.3896 16.0525801,-5.3149 l 8.73035,3.8767 c 0.24662,0.1045 0.53567,0.1045 0.78229,0 9.78889,-3.912 22.715802,-4.9083 33.669742,-4.9083 0,-0.013 3.03443,0.9484 4.44341,1.5006 z" style="text-indent:0;text-transform:none;direction:ltr;block-progression:tb;baseline-shift:baseline;color:;enable-background:accumulate;" fill="#0d47a1" fill-opacity="1" stroke="none" marker="none" visibility="visible" display="inline" overflow="visible"></path></g></g></g><g id="SvgjsG1034" featurekey="nameFeature-0" transform="matrix(1.202248124743516,0,0,1.202248124743516,55.51910120872386,143.57302479618414)" fill="#0d47a1"><path d="M8.44 39.96 l-8.04 0 c1 -0.12 2.44 -0.8 2.56 -2.36 l0 -23.24 c-0.12 -1.64 -1.56 -2.12 -2.56 -2.36 l9.12 0 c5.44 0 10.92 2.2 10.92 7.56 c0 3.76 -2.84 6 -6.56 6.96 c0.76 1.4 1.48 2.8 2.2 4.12 c1.24 2.36 2.68 5.08 3.76 7 c0.44 0.76 1.04 2.12 2.24 2.32 l-5.64 0 c0.48 -0.44 0.52 -0.96 0.52 -1.32 c0 -0.2 -0.16 -1.04 -0.36 -1.36 c-1.08 -1.96 -2.44 -4.52 -3.56 -6.6 c-0.68 -1.24 -1.32 -2.44 -1.96 -3.68 c-0.6 0.04 -1.08 0.08 -1.68 0.08 c-1.76 0 -2.88 0.28 -3.48 1.52 l0 9 c0.12 1.32 1.2 2.16 2.52 2.36 z M5.92 12.16 l0 16.12 c0.44 -1.08 1.68 -1.4 3.48 -1.4 c7.08 0 8.08 -4.28 8.08 -7.32 c0 -3.08 -0.92 -7.4 -8.08 -7.4 l-3.48 0 z M21.975 32.92 c-0.12 -0.68 -0.16 -1.36 -0.16 -2.04 c0 -1.6 0.4 -3.76 1.84 -5.84 c0.88 -1.2 3.32 -4.24 8.08 -4.36 l0.28 0 c4 0 8.16 2.4 8.92 7.36 c0.08 0.56 0.12 1.16 0.12 1.72 c0 2.84 -1.16 6.12 -4.2 8.52 c-1.12 0.92 -2.92 1.52 -4.32 1.8 c-0.64 0.12 -1.32 0.2 -1.96 0.2 c-0.24 0 -0.52 0 -0.8 -0.04 c-3.84 -0.44 -7.04 -2.88 -7.8 -7.32 z M24.855 26.880000000000003 c-0.24 0.88 -0.36 1.84 -0.36 2.92 c0 0.56 0 1.12 0.08 1.72 c0.32 3.16 1.4 5.32 2.84 6.64 s2.96 1.6 4.12 1.6 c0.32 0 0.68 -0.04 1 -0.08 c2.28 -0.32 3.84 -1.68 4.8 -3.6 c0.92 -1.92 1.04 -3.8 1.04 -5.16 c0 -0.48 -0.04 -1 -0.08 -1.48 c-0.32 -3.2 -1.68 -5.96 -3.76 -7.52 c-0.84 -0.52 -1.84 -0.8 -2.92 -0.8 c-2.8 0 -5.72 1.84 -6.76 5.76 z M48.87 25 c-0.28 0.72 -0.36 1.44 -0.28 2.2 c0.16 1.64 1.12 2.8 2.6 3.48 c0.76 0.36 1.76 0.44 2.92 0.28 c1.44 -0.16 2.76 -0.76 3.96 -1.52 l0 -0.08 c-0.2 -2.44 -0.92 -5.84 -3.28 -7.12 c-0.52 -0.24 -1.08 -0.36 -1.6 -0.36 c-0.48 0 -0.92 0.08 -1.36 0.24 c-1.32 0.6 -2.44 1.44 -2.96 2.88 z M42.709999999999994 30.84 c-0.08 -1.4 0.12 -2.68 0.6 -3.92 c1.36 -3.56 4.6 -6.12 8.48 -6.24 c-3.68 0.12 -5.76 3.48 -6.28 6.84 c-0.2 1.24 -0.24 2.52 -0.12 3.8 c0.44 3.72 1.36 8.24 6.04 8.4 c1.24 0.04 2.28 -0.2 3.16 -0.72 c1.92 -1.2 2.84 -3 3.28 -5.16 c0.2 -1.16 0.32 -2.32 0.28 -3.56 c0.44 -0.2 0.84 -0.48 1.28 -0.76 c0.4 -0.28 0.84 -0.56 1.28 -0.88 c0.28 1.44 0.2 2.88 -0.2 4.32 c-1.08 3.68 -4.84 6.96 -8.76 6.96 c-4.84 0 -8.72 -4.4 -9.04 -9.08 z M69.66999999999999 39.96 l-8.04 0 c1.28 -0.2 2.4 -1.04 2.56 -2.4 l0 -11.36 c0.72 -0.44 1.36 -0.84 1.88 -1.2 c0.52 -0.32 0.88 -0.52 1.08 -0.64 l0 13 c0.04 0.6 0.2 1.08 0.52 1.44 c0.4 0.6 1 0.84 1.64 1.04 z M54.11 31.16 c-0.96 0.12 -1.84 0.08 -2.6 -0.2 c-1.48 -0.48 -2.56 -1.52 -2.96 -3 c-0.2 -0.72 -0.24 -1.52 -0.08 -2.36 c0.52 -2.48 2.52 -4 5.04 -4 c3.4 0 6.16 3 7 6.12 c0.76 -0.56 1.48 -1.08 2.16 -1.52 c0.64 -0.44 1.16 -0.8 1.52 -1 l0 -2.08 c-0.08 -0.72 -0.4 -1.32 -0.96 -1.8 c-0.44 -0.32 -1.12 -0.6 -1.64 -0.68 l5.56 0 l0 2.76 c1.76 -1.04 3.64 -2 5.6 -2.52 c0.6 -0.12 1.12 -0.2 1.6 -0.16 c2.92 0.28 4.68 2.44 5.28 5.16 c0.16 -2.4 1.84 -4.24 4.12 -4.88 c0.96 -0.28 2.04 -0.36 3.2 -0.28 c3.92 0.2 5.56 4.16 5.56 7.64 l0 9 c0.08 1.4 1.12 2.36 2.48 2.6 l-8 0 c1.36 -0.2 2.48 -1.12 2.56 -2.56 l0 -10.24 c0 -1.04 -0.12 -1.92 -0.36 -2.68 c-0.72 -1.88 -2 -3.16 -4.16 -3.16 c-2.04 0 -4.12 1.32 -4.88 3.2 c-0.28 0.68 -0.4 1.4 -0.36 2.2 c0.04 0.28 0.04 0.52 0.08 0.8 l0 0.84 l0 9 c0.08 1.44 1.16 2.36 2.52 2.6 l-8.04 0 c0.6 -0.08 1.2 -0.36 1.68 -0.72 c0.56 -0.44 0.88 -1.12 0.88 -1.84 l0 -10.24 c0 -1.28 -0.24 -2.6 -0.84 -3.76 c-0.68 -1.2 -1.64 -1.92 -3.08 -1.92 c-1.88 0 -4.24 1.2 -5.84 2.12 c-2.24 1.36 -4.44 2.8 -6.6 4.32 c-1.84 1.36 -4.08 3 -6.44 3.24 z M96.60499999999999 30.880000000000003 l0 -0.4 c0 -6.04 5.12 -9.8 10.08 -9.8 c4.04 0 7.84 2.44 7.84 7.56 c-0.32 0 -0.68 -0.04 -1 -0.04 c-2.72 0 -5.96 0.56 -8.6 1.88 s-4.12 3.2 -4.12 5.2 c0 0.2 0 0.44 0.04 0.64 c1.32 2.28 3.44 3.68 6.28 3.68 l0.48 0 c3.16 -0.12 6.2 -2.48 6.64 -5.88 l0.2 0 c-0.32 2.84 -2.8 6.48 -8.04 6.48 c-4.76 0 -9.68 -2.72 -9.8 -9.32 z M99.565 28.240000000000002 c-0.08 0.6 -0.12 1.2 -0.12 1.8 c0 1.32 0.12 3.4 1.2 5.52 l0 -0.36 c0 -1.96 1.36 -3.64 3.56 -4.92 s5.04 -2.04 7.64 -2.2 l0 -0.2 c0 -1.84 -0.72 -3.72 -2 -5.08 s-2.8 -1.76 -3.92 -1.76 c-0.4 0 -0.8 0.04 -1.2 0.12 c-3.12 0.64 -4.68 4.04 -5.12 6.92 z M116.53999999999999 35.64 c0 -0.2 -0.04 -0.36 -0.04 -0.56 c0 -0.8 0.16 -1.84 0.76 -2.84 c1.88 -3.16 6.68 -3.36 8.28 -6.92 c0.2 -0.48 0.32 -0.92 0.32 -1.32 c0 -0.2 0 -0.84 -0.52 -1.52 c-0.52 -0.64 -1.24 -0.8 -1.68 -0.8 c-0.16 0 -0.36 0.04 -0.52 0.08 c-1.08 0.32 -1 1.56 -2.2 1.56 l-0.16 0 c-1.08 -0.04 -1.12 -0.88 -1.12 -1.16 s0.12 -0.56 0.32 -0.8 c0.44 -0.6 1.04 -0.76 1.8 -0.76 c1.16 0 2.52 0.6 3.36 1.36 c0.96 0.84 0.92 1.6 0.92 1.96 c0 0.68 -0.2 1.56 -0.92 2.64 s-1.6 2.04 -2.4 2.84 l-1.04 1.04 c-0.8 0.8 -1.52 1.64 -1.96 2.6 s-0.4 1.6 -0.4 1.84 c0 0.44 0.04 0.88 0.2 1.32 c0.68 2.08 2.2 3.4 3.96 3.4 c0.2 0 0.36 0 0.56 -0.04 c1.48 -0.2 2.8 -1.2 4.56 -3 l0 -9.56 c0 -1 -0.08 -1.92 -0.28 -2.76 c-0.32 -1.44 -1.04 -3 -2.48 -3.6 c2.88 0.2 5.72 2.08 5.72 6.64 l0 9.96 c0 0.32 0.08 0.64 0.2 0.96 c0.8 2.24 3.2 3.16 5.92 3.16 c3.88 0 8.12 -1.92 8.32 -4.72 l0 -0.24 c0 -2.32 -2.6 -3.4 -5.68 -4.6 c-3.08 -1.12 -5.76 -2.88 -5.76 -6.16 l0 -0.32 c0.12 -2.56 1.64 -4.72 5.72 -4.72 c2.12 0 4.48 1.28 5.96 2.6 l0 0.04 c-0.04 0.04 -0.04 0.04 -0.08 0.04 s-0.04 0 -0.04 0.04 c-2.4 -2.08 -4.6 -2.56 -5.92 -2.56 c-0.16 0 -0.36 0 -0.52 0.04 c-2.6 0.28 -4 1.68 -4.2 3.32 l0 0.32 c0 2.24 2.56 3.48 5.76 4.64 c3.08 1.16 5.92 2.68 5.92 5.64 l0 0.16 c-0.2 4.72 -5.04 6.68 -9.72 6.68 c-4.28 0 -8.4 -1.64 -8.8 -4.28 c0 -0.16 -0.04 -0.32 -0.04 -0.48 c-1.36 1.44 -3.28 3.16 -5.4 3.16 c-0.24 0 -0.52 0.04 -0.76 0.04 c-1.32 0 -3 -0.04 -4.4 -1.28 c-0.92 -0.8 -1.4 -1.92 -1.52 -3.08 z M148.83499999999998 30.880000000000003 l0 -0.4 c0 -6.04 5.12 -9.8 10.08 -9.8 c4.04 0 7.84 2.44 7.84 7.56 c-0.32 0 -0.68 -0.04 -1 -0.04 c-2.72 0 -5.96 0.56 -8.6 1.88 s-4.12 3.2 -4.12 5.2 c0 0.2 0 0.44 0.04 0.64 c1.32 2.28 3.44 3.68 6.28 3.68 l0.48 0 c3.16 -0.12 6.2 -2.48 6.64 -5.88 l0.2 0 c-0.32 2.84 -2.8 6.48 -8.04 6.48 c-4.76 0 -9.68 -2.72 -9.8 -9.32 z M151.795 28.240000000000002 c-0.08 0.6 -0.12 1.2 -0.12 1.8 c0 1.32 0.12 3.4 1.2 5.52 l0 -0.36 c0 -1.96 1.36 -3.64 3.56 -4.92 s5.04 -2.04 7.64 -2.2 l0 -0.2 c0 -1.84 -0.72 -3.72 -2 -5.08 s-2.8 -1.76 -3.92 -1.76 c-0.4 0 -0.8 0.04 -1.2 0.12 c-3.12 0.64 -4.68 4.04 -5.12 6.92 z"></path></g><g id="SvgjsG1035" featurekey="sloganFeature-0" transform="matrix(1.2684319071998522,0,0,1.2684319071998522,75.99999969758227,197.83541955198385)" fill="#0d47a1"><path d="M7.9 15.54 c0 1.4 -0.39336 2.4934 -1.18 3.28 s-1.88 1.18 -3.28 1.18 l-3.44 0 l0 -15 l2.98 0 c1.32 0 2.3366 0.32334 3.05 0.97 s1.07 1.6367 1.07 2.97 c0 0.56 -0.15334 1.0833 -0.46 1.57 s-0.67332 0.90332 -1.1 1.25 c0.68 0.44 1.2433 0.96666 1.69 1.58 s0.67 1.3467 0.67 2.2 z M5.78 8.94 c0 -0.73334 -0.2 -1.3434 -0.6 -1.83 s-0.98666 -0.73 -1.76 -0.73 l-2.04 0 l0 4.86 l2.24 0 c0.32 0 0.61 -0.06334 0.87 -0.19 s0.48666 -0.29332 0.68 -0.49998 s0.34334 -0.45 0.45 -0.73 s0.16 -0.57334 0.16 -0.88 z M6.56 15.620000000000001 c0 -0.96 -0.26664 -1.7033 -0.79998 -2.23 s-1.2733 -0.79 -2.22 -0.79 l-2.16 0 l0 5.98 l1.84 0 c0.46666 0 0.90332 -0.06 1.31 -0.18 s0.76 -0.3 1.06 -0.54 s0.53666 -0.54666 0.71 -0.92 s0.26 -0.81334 0.26 -1.32 z M16.64 16.12 c0 1.4133 -0.31666 2.4434 -0.95 3.09 s-1.6633 0.97 -3.09 0.97 c-1.3067 0 -2.2634 -0.36 -2.87 -1.08 s-0.91 -1.7133 -0.91 -2.98 l0 -7.2 c0 -1.3733 0.32334 -2.3934 0.97 -3.06 s1.6633 -1 3.05 -1 c1.32 0 2.2834 0.35 2.89 1.05 s0.91 1.69 0.91 2.97 l0 7.24 z M15.24 16.08 l-0.000019531 -7.22 c0 -0.76 -0.2 -1.3933 -0.6 -1.9 s-1.0067 -0.76 -1.82 -0.76 c-0.97334 0 -1.65 0.25334 -2.03 0.76 s-0.57 1.22 -0.57 2.14 l0 6.9 c0 0.38666 0.04334 0.75 0.13 1.09 s0.22666 0.63666 0.42 0.89 s0.44 0.45334 0.74 0.6 s0.66334 0.22 1.09 0.22 c0.93334 0 1.6067 -0.22666 2.02 -0.68 s0.62 -1.1333 0.62 -2.04 z M25.82 16.12 c0 1.4133 -0.31666 2.4434 -0.95 3.09 s-1.6633 0.97 -3.09 0.97 c-1.3067 0 -2.2634 -0.36 -2.87 -1.08 s-0.91 -1.7133 -0.91 -2.98 l0 -7.2 c0 -1.3733 0.32334 -2.3934 0.97 -3.06 s1.6633 -1 3.05 -1 c1.32 0 2.2834 0.35 2.89 1.05 s0.91 1.69 0.91 2.97 l0 7.24 z M24.42 16.08 l-0.000019531 -7.22 c0 -0.76 -0.2 -1.3933 -0.6 -1.9 s-1.0067 -0.76 -1.82 -0.76 c-0.97334 0 -1.65 0.25334 -2.03 0.76 s-0.57 1.22 -0.57 2.14 l0 6.9 c0 0.38666 0.04334 0.75 0.13 1.09 s0.22666 0.63666 0.42 0.89 s0.44 0.45334 0.74 0.6 s0.66334 0.22 1.09 0.22 c0.93334 0 1.6067 -0.22666 2.02 -0.68 s0.62 -1.1333 0.62 -2.04 z M35.32 20 l-1.52 0 l-3.26 -7.7 l-1.7 2.62 l0 5.08 l-1.34 0 l0 -15 l1.34 0 l0 7.2 l4.52 -7.2 l1.62 0 l-3.46 6.14 z M47.660000000000004 16.12 c0 1.2267 -0.3199 2.21 -0.9599 2.95 s-1.5933 1.11 -2.86 1.11 c-0.74666 0 -1.3767 -0.10666 -1.89 -0.32 s-0.93 -0.52 -1.25 -0.92 s-0.55 -0.88 -0.69 -1.44 s-0.20334 -1.1867 -0.19 -1.88 l0.02 -0.52 l1.54 0 c0 0.42666 0.01334 0.86332 0.04 1.31 s0.11332 0.85332 0.25998 1.22 s0.37332 0.66666 0.67998 0.9 s0.74666 0.35 1.32 0.35 c0.88 0 1.5267 -0.23334 1.94 -0.7 s0.62 -1.12 0.62 -1.96 c0 -0.66666 -0.16 -1.1933 -0.48 -1.58 s-0.72 -0.71332 -1.2 -0.97998 s-0.99666 -0.50666 -1.55 -0.72 s-1.07 -0.48 -1.55 -0.8 s-0.88 -0.73 -1.2 -1.23 s-0.48 -1.1633 -0.48 -1.99 c0 -1.3333 0.34334 -2.3434 1.03 -3.03 s1.6967 -1.03 3.03 -1.03 c0.62666 0 1.17 0.1 1.63 0.3 s0.84334 0.48 1.15 0.84 s0.53332 0.78666 0.67998 1.28 s0.22 1.04 0.22 1.64 l0 1.26 l-1.46 0 c0 -0.44 -0.0033398 -0.89666 -0.01 -1.37 s-0.07666 -0.90668 -0.21 -1.3 s-0.35668 -0.71668 -0.67002 -0.97002 s-0.77 -0.38 -1.37 -0.38 c-0.86666 0 -1.52 0.22 -1.96 0.66 s-0.64666 1.0867 -0.62 1.94 l0 0.2 c0.01334 0.41334 0.08334 0.75668 0.21 1.03 s0.3 0.50668 0.52 0.70002 s0.47666 0.36334 0.77 0.51 s0.61334 0.3 0.96 0.46 c0.50666 0.22666 1 0.46666 1.48 0.72 s0.90334 0.55 1.27 0.89 s0.66332 0.74 0.88998 1.2 s0.34 1.01 0.34 1.65 z M56.400000000000006 20 l-7.5 0 l0 -15 l7.36 0 l0 1.52 l-5.98 0 l0 5.16 l5.94 0 l0 1.3 l-5.94 0 l0 5.5 l6.12 0 l0 1.52 z M66.42 20 l-1.4 0 l-1.06 -4.3 l-4.36 0 l-1.06 4.3 l-1.36 0 l4.06 -15 l1.14 0 z M63.620000000000005 14.36 l-1.78 -7.42 l-1.9 7.42 l3.68 0 z M77.56 20 l-1.34 0 l0 -11.58 l-3.14 7.62 l-1.36 -0.02 l-3.06 -7.6 l0 11.58 l-1.34 0 l0 -15 l1.34 0 l3.76 9.18 l3.8 -9.18 l1.34 0 l0 15 z M85.72 20 l-6.18 0 l0 -15 l1.4 0 l0 13.56 l4.78 0 l0 1.44 z M94.34 20 l-7.5 0 l0 -15 l7.36 0 l0 1.52 l-5.98 0 l0 5.16 l5.94 0 l0 1.3 l-5.94 0 l0 5.5 l6.12 0 l0 1.52 z M102.66000000000001 16.12 c0 1.2267 -0.3199 2.21 -0.9599 2.95 s-1.5933 1.11 -2.86 1.11 c-0.74666 0 -1.3767 -0.10666 -1.89 -0.32 s-0.93 -0.52 -1.25 -0.92 s-0.55 -0.88 -0.69 -1.44 s-0.20334 -1.1867 -0.19 -1.88 l0.02 -0.52 l1.54 0 c0 0.42666 0.01334 0.86332 0.04 1.31 s0.11332 0.85332 0.25998 1.22 s0.37332 0.66666 0.67998 0.9 s0.74666 0.35 1.32 0.35 c0.88 0 1.5267 -0.23334 1.94 -0.7 s0.62 -1.12 0.62 -1.96 c0 -0.66666 -0.16 -1.1933 -0.48 -1.58 s-0.72 -0.71332 -1.2 -0.97998 s-0.99666 -0.50666 -1.55 -0.72 s-1.07 -0.48 -1.55 -0.8 s-0.88 -0.73 -1.2 -1.23 s-0.48 -1.1633 -0.48 -1.99 c0 -1.3333 0.34334 -2.3434 1.03 -3.03 s1.6967 -1.03 3.03 -1.03 c0.62666 0 1.17 0.1 1.63 0.3 s0.84334 0.48 1.15 0.84 s0.53332 0.78666 0.67998 1.28 s0.22 1.04 0.22 1.64 l0 1.26 l-1.46 0 c0 -0.44 -0.0033398 -0.89666 -0.01 -1.37 s-0.07666 -0.90668 -0.21 -1.3 s-0.35668 -0.71668 -0.67002 -0.97002 s-0.77 -0.38 -1.37 -0.38 c-0.86666 0 -1.52 0.22 -1.96 0.66 s-0.64666 1.0867 -0.62 1.94 l0 0.2 c0.01334 0.41334 0.08334 0.75668 0.21 1.03 s0.3 0.50668 0.52 0.70002 s0.47666 0.36334 0.77 0.51 s0.61334 0.3 0.96 0.46 c0.50666 0.22666 1 0.46666 1.48 0.72 s0.90334 0.55 1.27 0.89 s0.66332 0.74 0.88998 1.2 s0.34 1.01 0.34 1.65 z M111.50000000000001 16.12 c0 1.2267 -0.3199 2.21 -0.9599 2.95 s-1.5933 1.11 -2.86 1.11 c-0.74666 0 -1.3767 -0.10666 -1.89 -0.32 s-0.93 -0.52 -1.25 -0.92 s-0.55 -0.88 -0.69 -1.44 s-0.20334 -1.1867 -0.19 -1.88 l0.02 -0.52 l1.54 0 c0 0.42666 0.01334 0.86332 0.04 1.31 s0.11332 0.85332 0.25998 1.22 s0.37332 0.66666 0.67998 0.9 s0.74666 0.35 1.32 0.35 c0.88 0 1.5267 -0.23334 1.94 -0.7 s0.62 -1.12 0.62 -1.96 c0 -0.66666 -0.16 -1.1933 -0.48 -1.58 s-0.72 -0.71332 -1.2 -0.97998 s-0.99666 -0.50666 -1.55 -0.72 s-1.07 -0.48 -1.55 -0.8 s-0.88 -0.73 -1.2 -1.23 s-0.48 -1.1633 -0.48 -1.99 c0 -1.3333 0.34334 -2.3434 1.03 -3.03 s1.6967 -1.03 3.03 -1.03 c0.62666 0 1.17 0.1 1.63 0.3 s0.84334 0.48 1.15 0.84 s0.53332 0.78666 0.67998 1.28 s0.22 1.04 0.22 1.64 l0 1.26 l-1.46 0 c0 -0.44 -0.0033398 -0.89666 -0.01 -1.37 s-0.07666 -0.90668 -0.21 -1.3 s-0.35668 -0.71668 -0.67002 -0.97002 s-0.77 -0.38 -1.37 -0.38 c-0.86666 0 -1.52 0.22 -1.96 0.66 s-0.64666 1.0867 -0.62 1.94 l0 0.2 c0.01334 0.41334 0.08334 0.75668 0.21 1.03 s0.3 0.50668 0.52 0.70002 s0.47666 0.36334 0.77 0.51 s0.61334 0.3 0.96 0.46 c0.50666 0.22666 1 0.46666 1.48 0.72 s0.90334 0.55 1.27 0.89 s0.66332 0.74 0.88998 1.2 s0.34 1.01 0.34 1.65 z M118.80000000000001 20 l-6.18 0 l0 -15 l1.4 0 l0 13.56 l4.78 0 l0 1.44 z M126.14000000000001 5 l-3.54 8.16 l0 6.84 l-1.44 0 l0 -6.84 l-3.54 -8.16 l1.6 0 l2.64 6.44 l2.68 -6.44 l1.6 0 z"></path></g></svg>